<svg xmlns="http://www.w3.org/2000/svg" version="1.1" viewBox="-5.0 -10.0 110.0 135.0">
 <path fill="#FFAD32" d="m83.828 45.453c-0.30859-0.12891-0.66406-0.19531-0.97656-0.24219v-1.5664c-1.8672-44.609-65.879-42.902-65.711 1.5703-14.5 3.6641-14.539 24.488 0 28.164h6.2578c4.3125 0 7.8242-3.5078 7.8242-7.8242v-12.516c0-3.1992-1.9375-5.9492-4.6953-7.1602-1.1055-32.684 45.277-34.73 46.938-2.2266v2.2266c-2.7578 1.2109-4.6953 3.9609-4.6953 7.1602v12.516c0 4.3125 3.5078 7.8242 7.8242 7.8242 0.51562 4.9258-2.6836 9.3359-7.8242 9.3867h-8.1094c-1.7578-4.9062-9.0508-3.6797-9.0977 1.5664 0.042969 5.2422 7.3477 6.4688 9.0977 1.5625h8.1094c6.7148 0.042969 11.617-5.9688 10.953-12.516h3.1289c14.02-3.5547 14.691-23.285 0.97656-27.922zm-27.574 40.438c-2.0547-0.035156-2.0547-3.0938 0-3.1289 2.0547 0.035156 2.0547 3.0938 0 3.1289zm-46.938-26.598c0-4.3594 2.457-8.2695 6.2578-10.203v20.406c-3.8008-1.9336-6.2578-5.8398-6.2578-10.203zm18.773-6.2578v12.516c0 2.5898-2.1055 4.6953-4.6953 4.6953h-4.6953v-21.902h4.6953c2.5898 0 4.6953 2.1055 4.6953 4.6953zm21.902-35.984c-15.273-0.046875-27.398 12.969-26.598 28.164h-3.1289c-0.80859-16.918 12.734-31.34 29.727-31.293 16.992-0.050781 30.539 14.375 29.727 31.293h-3.1289c0.79688-15.191-11.324-28.211-26.598-28.164zm31.293 53.195h-4.6953c-2.5898 0-4.6953-2.1055-4.6953-4.6953v-12.516c0-2.5898 2.1055-4.6953 4.6953-4.6953h4.6953zm3.1289-0.75v-20.406c8.2578 3.9961 8.2578 16.414 0 20.406z"/>
</svg>