<svg xmlns="http://www.w3.org/2000/svg" version="1.1" viewBox="-5.0 -10.0 110.0 135.0">
 <path fill="#92DD92" d="m62.832 91.25c8.7148 0 16.602-3.5352 22.312-9.2422 5.7109-5.7109 9.2422-13.598 9.2422-22.312 0-8.7148-3.5312-16.605-9.2422-22.312-5.7109-5.7109-13.598-9.2422-22.312-9.2422-8.7148 0-16.605 3.5312-22.312 9.2422-5.7109 5.7109-9.2422 13.598-9.2422 22.312 0 8.7148 3.5352 16.605 9.2422 22.312 5.7109 5.7109 13.598 9.2422 22.312 9.2422zm-49.168-14.113c-1.2656 0-2.2969-1.0273-2.2969-2.2969 0-1.2695 1.0273-2.2969 2.2969-2.2969h5.2578c1.2656 0 2.2969 1.0273 2.2969 2.2969 0 1.2695-1.0273 2.2969-2.2969 2.2969zm-10.352-30.293c-1.2695 0-2.2969-1.0273-2.2969-2.2969 0-1.2656 1.0273-2.2969 2.2969-2.2969h15.605c1.2656 0 2.2969 1.0273 2.2969 2.2969s-1.0273 2.2969-2.2969 2.2969zm5.1758 15.148c-1.2656 0-2.2969-1.0273-2.2969-2.2969 0-1.2656 1.0273-2.2969 2.2969-2.2969h7.582c1.2656 0 2.2969 1.0273 2.2969 2.2969 0 1.2695-1.0273 2.2969-2.2969 2.2969zm28.258-2.2969c0-1.2656 1.0273-2.2969 2.2969-2.2969 1.2656 0 2.2969 1.0273 2.2969 2.2969 0 5.9375 2.4062 11.309 6.293 15.199 3.8867 3.8867 9.2656 6.293 15.199 6.293 5.9375 0 11.309-2.4062 15.199-6.293 3.8906-3.8906 6.2969-9.2656 6.2969-15.199 0-5.9375-2.4062-11.309-6.2969-15.199-3.3828-3.3828-7.8828-5.6406-12.902-6.1758v21.375c0 1.2695-1.0273 2.2969-2.2969 2.2969s-2.2969-1.0273-2.2969-2.2969v-23.793c0-1.2656 1.0273-2.2969 2.2969-2.2969 7.2031 0 13.727 2.9219 18.445 7.6406 4.7227 4.7227 7.6406 11.242 7.6406 18.445s-2.9219 13.727-7.6406 18.445c-4.7227 4.7227-11.242 7.6406-18.445 7.6406s-13.727-2.918-18.445-7.6406c-4.7227-4.7227-7.6406-11.242-7.6406-18.445zm16.188-45.574h19.805v-5.3633h-19.801v5.3633zm22.098 4.5938h-4.4258v5.6719c6.8594 1.5039 12.996 4.957 17.789 9.75 6.5391 6.5391 10.586 15.578 10.586 25.559 0 9.9805-4.0469 19.02-10.586 25.559-6.543 6.543-15.578 10.59-25.559 10.59-9.9805 0-19.02-4.0469-25.559-10.59-6.543-6.5391-10.59-15.578-10.59-25.559 0-9.9805 4.0469-19.02 10.59-25.559 4.793-4.793 10.926-8.2461 17.789-9.75v-5.6719h-4.4258c-1.2656 0-2.2969-1.0273-2.2969-2.2969v-9.957c0-1.2656 1.0273-2.2969 2.2969-2.2969h24.395c1.2695 0 2.2969 1.0273 2.2969 2.2969v9.957c0 1.2656-1.0273 2.2969-2.2969 2.2969zm-9.0195 4.9727v-4.9727h-6.3594v4.9727c1.0469-0.09375 2.1094-0.13672 3.1797-0.13672 1.0703 0 2.1328 0.046875 3.1797 0.13672z"/>
</svg>