<svg xmlns="http://www.w3.org/2000/svg" version="1.1" viewBox="-5.0 -10.0 110.0 135.0">
 <g fill="#9CD8E1">
  <path d="m54.27 36.246c1.2773 1.2812 3.0117 2 4.8203 2s3.543-0.71875 4.8203-2l9.6445-9.6406c3.043-2.8086 4.3086-7.0586 3.2969-11.074-1.1172-4.0273-4.2617-7.1758-8.2891-8.2891-3.2812-0.87109-6.7812-0.16797-9.4727 1.9023-4.4766-3.5391-10.91-3.1211-14.891 0.97266-2.2305 2.1914-3.4531 5.2109-3.3711 8.3359 0.078125 3.125 1.4492 6.0781 3.7891 8.1523zm-6.8477-22.914c1.2461-1.2852 2.9531-2.0195 4.7422-2.0469 2.0352 0.066406 3.9531 0.95703 5.3203 2.4648 0.88672 0.88672 2.3242 0.88672 3.2148 0 1.2188-1.4414 3-2.293 4.8867-2.3398 1.8906-0.046875 3.707 0.71484 5 2.0977 1.3789 1.2891 2.1406 3.1094 2.0938 4.9961-0.046876 1.8906-0.89844 3.668-2.3398 4.8906l-9.6445 9.6406h0.003907c-0.89844 0.85938-2.3164 0.85938-3.2148 0l-9.6445-9.6406c-1.4883-1.2188-2.3828-3.0156-2.4648-4.9375-0.078125-1.9219 0.66406-3.7891 2.0469-5.125z"/>
  <path d="m84.773 58.301c-1.0156-0.86719-2.3633-1.2422-3.6797-1.0195l-22.199 3.6484-15.297-5.4375c-2.4609-0.87891-5.1836-0.65234-7.4648 0.62109l-7.8594 4.3711c-0.85547-0.89062-2.0391-1.3945-3.2734-1.3945h-6.8164c-2.5117 0-4.5469 2.0352-4.5469 4.5469v22.727c0 1.207 0.48047 2.3633 1.332 3.2148s2.0078 1.332 3.2148 1.332h6.8164c1.5039 0 2.9141-0.75 3.7578-1.9961l22.297 3.7148 0.003906 0.003906c2.6328 0.44141 5.3281-0.30078 7.3672-2.0273l25.523-21.59v-0.003906c1.5352-1.2969 2.418-3.2031 2.4141-5.2109v-2.0312c0.003907-1.3359-0.57812-2.6016-1.5898-3.4688zm-66.59 28.062v-22.727h6.8164v22.727zm63.637-22.562h-0.003906c0.003906 0.66797-0.29297 1.3047-0.80469 1.7344l-25.523 21.59v0.003906c-1.0156 0.86328-2.3672 1.2344-3.6836 1.0117l-22.258-3.7031v-19.465l8.7852-4.8867c1.1406-0.63672 2.5-0.75 3.7305-0.3125l18.535 6.5898 0.003906 0.003907c0.72656 0.25781 1.2539 0.89844 1.375 1.6641 0.11719 0.76562-0.19531 1.5352-0.81641 2-0.36328 0.27734-0.80859 0.42578-1.2656 0.42578h-18.984c-1.2578 0-2.2734 1.0156-2.2734 2.2734 0 1.2539 1.0156 2.2734 2.2734 2.2734h18.984c1.9414-0.003906 3.7852-0.85156 5.0469-2.3242 1.2656-1.4727 1.8203-3.4258 1.5273-5.3438-0.17188-1.0312-0.58984-2.0078-1.2109-2.8477l16.559-2.7188z"/>
 </g>
</svg>