<svg xmlns="http://www.w3.org/2000/svg" data-name="Layer 1" viewBox="0 0 32 40" x="0px" y="0px"><title>Artboard 4Nature</title><path d="M1.50659,22.02A1.60857,1.60857,0,0,1,1,20.8474V19.12832A1.61371,1.61371,0,0,1,2.61112,17.5172h.26575A6.3996,6.3996,0,0,1,3.704,11.57268a.43888.43888,0,0,1,.71088.51489,5.52161,5.52161,0,0,0-.59462,5.42963H13.96036A5.52416,5.52416,0,0,0,8.71675,9.80211l.04318.98a2.34521,2.34521,0,0,0,.30229-.17108.43879.43879,0,1,1,.48333.73248,2.50477,2.50477,0,0,1-2.503.25911.43848.43848,0,0,1,.35046-.8039,1.72743,1.72743,0,0,0,.49662.13952L7.8431,9.90011a5.44518,5.44518,0,0,0-2.29377,1.02314.43784.43784,0,1,1-.5315-.69593,6.387,6.387,0,0,1,2.812-1.21581c.005-.29731.02159-.60126.05481-.91186a4.51611,4.51611,0,0,1-4.32842-4.463.43979.43979,0,0,1,.38866-.40527,3.68252,3.68252,0,0,1,1.75894.15281A4.808,4.808,0,0,1,8.47924,5.854,9.07774,9.07774,0,0,1,10.39265,3.15a.43808.43808,0,0,1,.62119.61787A7.16162,7.16162,0,0,0,8.71343,8.92513a6.3539,6.3539,0,0,1,2.29875.35876,10.13923,10.13923,0,0,1,.75407-2.20574,4.49481,4.49481,0,0,1,3.6491-2.29875,7.1373,7.1373,0,0,1,1.078-3.1641.43816.43816,0,1,1,.73746.47337,6.30168,6.30168,0,0,0-.93013,2.68907A4.03547,4.03547,0,0,1,20.00786,8.583c.02491.16941.04983.33053.0764.48666a4.15936,4.15936,0,0,1,1.41679.07308,6.16951,6.16951,0,0,1,1.9267.8122c.04485.02325.08637.04318.12789.06146.04485-.32887.103-.666.18271-1.00819a4.12289,4.12289,0,0,1-3.44314-4.47127.43582.43582,0,0,1,.40029-.35876V4.17649a4.09554,4.09554,0,0,1,3.85672,2.73226,7.7756,7.7756,0,0,1,1.87521-2.17086.438.438,0,0,1,.55309.67933,6.9463,6.9463,0,0,0-2.55454,4.732c.34548-.05149.75241-.22091,1.2291-.30229a3.28674,3.28674,0,0,1,2.68741.54479,4.31366,4.31366,0,0,1,1.41845,2.59606,8.20668,8.20668,0,0,1-.40361,4.5294A1.61138,1.61138,0,0,1,31,19.12832V20.8474A1.60857,1.60857,0,0,1,30.49341,22.02,1.60482,1.60482,0,0,1,31,23.191v1.72074a1.61137,1.61137,0,0,1-.50659,1.17263A1.60482,1.60482,0,0,1,31,27.25533v1.72074a1.61371,1.61371,0,0,1-1.61112,1.61112H27.6316a.43932.43932,0,1,1,0-.87864h1.75728a.73474.73474,0,0,0,.73248-.73248V27.25533a.73474.73474,0,0,0-.73248-.73248H2.61112a.73581.73581,0,0,0-.73248.73248v1.72074a.73581.73581,0,0,0,.73248.73248h23.2632a.43932.43932,0,0,1,0,.87864H2.61112A1.61478,1.61478,0,0,1,1,28.97607V27.25533a1.60482,1.60482,0,0,1,.50659-1.171A1.61137,1.61137,0,0,1,1,24.91173V23.191a1.60482,1.60482,0,0,1,.50659-1.171Zm21.23187-9.43251a.43809.43809,0,1,1,.43185-.76237,1.60593,1.60593,0,0,0,.22921.10962l.06311-1.00653a3.22481,3.22481,0,0,1-.495-.22589,4.41635,4.41635,0,0,0-2.70734-.77068A6.20555,6.20555,0,0,0,21.75019,12.732a4.99556,4.99556,0,0,1,1.17429,4.78518h5.49109a7.41974,7.41974,0,0,0,.48666-4.34669,3.48477,3.48477,0,0,0-1.09955-2.08615,2.4549,2.4549,0,0,0-1.99978-.37205c-.5315.09135-.9866.30229-1.46994.34049l-.05813.91518a2.12421,2.12421,0,0,0,.37371-.15114.43829.43829,0,1,1,.40195.779,2.30458,2.30458,0,0,1-2.312-.0083ZM14.55332,7.26086a.43809.43809,0,0,1,.43185-.76237,1.68285,1.68285,0,0,0,.29233.13122l.06146-.96a3.5985,3.5985,0,0,0-2.78707,1.79548,9.45181,9.45181,0,0,0-.71919,2.17252,6.40572,6.40572,0,0,1,3.07109,7.87952H22.006a4.10875,4.10875,0,0,0-.9185-4.21216,7.74681,7.74681,0,0,1-1.94829-4.59418,3.16466,3.16466,0,0,0-2.91994-3.05946l-.05979.96833a2.31414,2.31414,0,0,0,.304-.12955.43829.43829,0,1,1,.402.779,2.30863,2.30863,0,0,1-2.312-.00831ZM5.42974,4.21967a2.9671,2.9671,0,0,0-.99491-.15779A3.70053,3.70053,0,0,0,7.961,7.22266a3.73978,3.73978,0,0,0-2.53128-3.003ZM21.94452,5.286a2.6441,2.6441,0,0,0-.82051-.22755,3.31814,3.31814,0,0,0,2.78208,3.086A3.35664,3.35664,0,0,0,21.94452,5.286ZM12.60337,28.55419a.43932.43932,0,1,1,0-.87864H15.9319a.43932.43932,0,1,1,0,.87864Zm16.06633-.87864a.43932.43932,0,1,1-.44015.44015.43949.43949,0,0,1,.44015-.44015Zm-25.33773,0a.43932.43932,0,1,1-.44015.44015.43949.43949,0,0,1,.44015-.44015Zm14.58809-3.184a.43932.43932,0,1,1,0-.87864H24.818a.43932.43932,0,1,1,0,.87864Zm10.74964-.87864a.43932.43932,0,1,1-.44015.43849.43807.43807,0,0,1,.44015-.43849Zm-25.33773,0a.43932.43932,0,1,1-.44015.43849.43807.43807,0,0,1,.44015-.43849Zm2.96977-3.18569a.43932.43932,0,0,1,0-.87864H18.62263a.43932.43932,0,1,1,0,.87864Zm22.368-.87864a.43932.43932,0,1,1-.44015.44015.43843.43843,0,0,1,.44015-.44015Zm-25.33773,0a.43932.43932,0,1,1-.44015.44015.43843.43843,0,0,1,.44015-.44015Zm26.05691,6.09567a.73367.73367,0,0,0,.73248-.73248V23.191a.73474.73474,0,0,0-.73248-.73248H2.61112a.73581.73581,0,0,0-.73248.73248v1.72074a.73474.73474,0,0,0,.73248.73248Zm0-4.06434a.73367.73367,0,0,0,.73248-.73248V19.12832a.73367.73367,0,0,0-.73248-.73248H2.61112a.73474.73474,0,0,0-.73248.73248V20.8474a.73474.73474,0,0,0,.73248.73248Z"/><text x="0" y="47" fill="#000000" font-size="5px" font-weight="bold" font-family="'Helvetica Neue', Helvetica, Arial-Unicode, Arial, Sans-serif">Created by Fitrapratama</text><text x="0" y="52" fill="#000000" font-size="5px" font-weight="bold" font-family="'Helvetica Neue', Helvetica, Arial-Unicode, Arial, Sans-serif">from the Noun Project</text></svg>